<svg width="364" height="376" viewBox="0 0 364 376" fill="none" xmlns="http://www.w3.org/2000/svg">
<line x1="186.461" y1="362.407" x2="-18.6595" y2="203.188" stroke="#626262"/>
<line x1="268.905" y1="256.196" x2="63.7841" y2="96.9767" stroke="#626262"/>
<line x1="227.683" y1="309.301" x2="22.5625" y2="150.082" stroke="#626262"/>
<line x1="310.127" y1="203.09" x2="105.006" y2="43.8709" stroke="#626262"/>
<line x1="207.073" y1="335.854" x2="1.95154" y2="176.635" stroke="#626262"/>
<line x1="289.516" y1="229.643" x2="84.3949" y2="70.4237" stroke="#626262"/>
<line x1="248.294" y1="282.749" x2="43.1733" y2="123.53" stroke="#626262"/>
<line x1="330.738" y1="176.537" x2="125.617" y2="17.318" stroke="#626262"/>
<line x1="196.767" y1="349.131" x2="-8.35388" y2="189.912" stroke="#626262"/>
<line x1="279.211" y1="242.919" x2="74.0898" y2="83.7003" stroke="#626262"/>
<line x1="237.989" y1="296.025" x2="32.8677" y2="136.806" stroke="#626262"/>
<line x1="320.432" y1="189.813" x2="115.311" y2="30.5943" stroke="#626262"/>
<line x1="217.378" y1="322.578" x2="12.2569" y2="163.359" stroke="#626262"/>
<line x1="299.821" y1="216.366" x2="94.7005" y2="57.1473" stroke="#626262"/>
<line x1="258.6" y1="269.472" x2="53.4787" y2="110.253" stroke="#626262"/>
<line x1="341.043" y1="163.261" x2="135.922" y2="4.0416" stroke="#626262"/>
<line x1="191.614" y1="355.769" x2="-13.5066" y2="196.55" stroke="#626262"/>
<line x1="274.058" y1="249.558" x2="68.937" y2="90.3385" stroke="#626262"/>
<line x1="232.836" y1="302.663" x2="27.7151" y2="143.444" stroke="#626262"/>
<line x1="315.28" y1="196.452" x2="110.159" y2="37.2328" stroke="#626262"/>
<line x1="212.225" y1="329.216" x2="7.10413" y2="169.997" stroke="#626262"/>
<line x1="294.669" y1="223.005" x2="89.5477" y2="63.7855" stroke="#626262"/>
<line x1="253.447" y1="276.11" x2="48.3261" y2="116.891" stroke="#626262"/>
<line x1="335.891" y1="169.899" x2="130.77" y2="10.6798" stroke="#626262"/>
<line x1="201.92" y1="342.493" x2="-3.20111" y2="183.274" stroke="#626262"/>
<line x1="284.363" y1="236.281" x2="79.2423" y2="77.0621" stroke="#626262"/>
<line x1="243.142" y1="289.387" x2="38.0205" y2="130.168" stroke="#626262"/>
<line x1="325.585" y1="183.175" x2="120.464" y2="23.9561" stroke="#626262"/>
<line x1="222.531" y1="315.94" x2="17.4097" y2="156.721" stroke="#626262"/>
<line x1="304.974" y1="209.728" x2="99.8533" y2="50.5091" stroke="#626262"/>
<line x1="263.752" y1="262.834" x2="58.6313" y2="103.615" stroke="#626262"/>
<line x1="346.196" y1="156.623" x2="141.075" y2="-2.59659" stroke="#626262"/>
<circle cx="164.075" cy="175.729" r="117.147" stroke="white"/>
<circle cx="164" cy="176" r="150" stroke="#141414" stroke-width="100"/>
</svg>
