<svg width="400" height="400" viewBox="0 0 400 400" fill="none" xmlns="http://www.w3.org/2000/svg">
<line y1="-0.5" x2="259.664" y2="-0.5" transform="matrix(0.789948 -0.613174 -0.613174 -0.789948 177.232 386.012)" stroke="#626262"/>
<line y1="-0.5" x2="259.664" y2="-0.5" transform="matrix(0.789948 -0.613174 -0.613174 -0.789948 94.7883 279.801)" stroke="#626262"/>
<line y1="-0.5" x2="259.664" y2="-0.5" transform="matrix(0.789948 -0.613174 -0.613174 -0.789948 136.01 332.906)" stroke="#626262"/>
<line y1="-0.5" x2="259.664" y2="-0.5" transform="matrix(0.789948 -0.613174 -0.613174 -0.789948 53.5665 226.695)" stroke="#626262"/>
<line y1="-0.5" x2="259.664" y2="-0.5" transform="matrix(0.789948 -0.613174 -0.613174 -0.789948 156.621 359.459)" stroke="#626262"/>
<line y1="-0.5" x2="259.664" y2="-0.5" transform="matrix(0.789948 -0.613174 -0.613174 -0.789948 74.1775 253.248)" stroke="#626262"/>
<line y1="-0.5" x2="259.664" y2="-0.5" transform="matrix(0.789948 -0.613174 -0.613174 -0.789948 115.399 306.354)" stroke="#626262"/>
<line y1="-0.5" x2="259.664" y2="-0.5" transform="matrix(0.789948 -0.613174 -0.613174 -0.789948 32.9555 200.142)" stroke="#626262"/>
<line y1="-0.5" x2="259.664" y2="-0.5" transform="matrix(0.789948 -0.613174 -0.613174 -0.789948 166.926 372.736)" stroke="#626262"/>
<line y1="-0.5" x2="259.664" y2="-0.5" transform="matrix(0.789948 -0.613174 -0.613174 -0.789948 84.4827 266.524)" stroke="#626262"/>
<line y1="-0.5" x2="259.664" y2="-0.5" transform="matrix(0.789948 -0.613174 -0.613174 -0.789948 125.705 319.63)" stroke="#626262"/>
<line y1="-0.5" x2="259.664" y2="-0.5" transform="matrix(0.789948 -0.613174 -0.613174 -0.789948 43.2611 213.419)" stroke="#626262"/>
<line y1="-0.5" x2="259.664" y2="-0.5" transform="matrix(0.789948 -0.613174 -0.613174 -0.789948 146.316 346.183)" stroke="#626262"/>
<line y1="-0.5" x2="259.664" y2="-0.5" transform="matrix(0.789948 -0.613174 -0.613174 -0.789948 63.8719 239.971)" stroke="#626262"/>
<line y1="-0.5" x2="259.664" y2="-0.5" transform="matrix(0.789948 -0.613174 -0.613174 -0.789948 105.094 293.077)" stroke="#626262"/>
<line y1="-0.5" x2="259.664" y2="-0.5" transform="matrix(0.789948 -0.613174 -0.613174 -0.789948 22.6503 186.866)" stroke="#626262"/>
<line y1="-0.5" x2="259.664" y2="-0.5" transform="matrix(0.789948 -0.613174 -0.613174 -0.789948 172.079 379.374)" stroke="#626262"/>
<line y1="-0.5" x2="259.664" y2="-0.5" transform="matrix(0.789948 -0.613174 -0.613174 -0.789948 89.6355 273.163)" stroke="#626262"/>
<line y1="-0.5" x2="259.664" y2="-0.5" transform="matrix(0.789948 -0.613174 -0.613174 -0.789948 130.857 326.268)" stroke="#626262"/>
<line y1="-0.5" x2="259.664" y2="-0.5" transform="matrix(0.789948 -0.613174 -0.613174 -0.789948 48.4139 220.057)" stroke="#626262"/>
<line y1="-0.5" x2="259.664" y2="-0.5" transform="matrix(0.789948 -0.613174 -0.613174 -0.789948 151.468 352.821)" stroke="#626262"/>
<line y1="-0.5" x2="259.664" y2="-0.5" transform="matrix(0.789948 -0.613174 -0.613174 -0.789948 69.0247 246.61)" stroke="#626262"/>
<line y1="-0.5" x2="259.664" y2="-0.5" transform="matrix(0.789948 -0.613174 -0.613174 -0.789948 110.246 299.715)" stroke="#626262"/>
<line y1="-0.5" x2="259.664" y2="-0.5" transform="matrix(0.789948 -0.613174 -0.613174 -0.789948 27.8029 193.504)" stroke="#626262"/>
<line y1="-0.5" x2="259.664" y2="-0.5" transform="matrix(0.789948 -0.613174 -0.613174 -0.789948 161.774 366.098)" stroke="#626262"/>
<line y1="-0.5" x2="259.664" y2="-0.5" transform="matrix(0.789948 -0.613174 -0.613174 -0.789948 79.3301 259.886)" stroke="#626262"/>
<line y1="-0.5" x2="259.664" y2="-0.5" transform="matrix(0.789948 -0.613174 -0.613174 -0.789948 120.552 312.992)" stroke="#626262"/>
<line y1="-0.5" x2="259.664" y2="-0.5" transform="matrix(0.789948 -0.613174 -0.613174 -0.789948 38.1083 206.78)" stroke="#626262"/>
<line y1="-0.5" x2="259.664" y2="-0.5" transform="matrix(0.789948 -0.613174 -0.613174 -0.789948 141.163 339.545)" stroke="#626262"/>
<line y1="-0.5" x2="259.664" y2="-0.5" transform="matrix(0.789948 -0.613174 -0.613174 -0.789948 58.7191 233.333)" stroke="#626262"/>
<line y1="-0.5" x2="259.664" y2="-0.5" transform="matrix(0.789948 -0.613174 -0.613174 -0.789948 99.9411 286.439)" stroke="#626262"/>
<line y1="-0.5" x2="259.664" y2="-0.5" transform="matrix(0.789948 -0.613174 -0.613174 -0.789948 17.4975 180.228)" stroke="#626262"/>
<circle r="117.147" transform="matrix(-1 0 0 1 199.925 199.729)" stroke="#F8F8F8"/>
<circle r="150" transform="matrix(-1 0 0 1 200 200)" stroke="#F8F8F8" stroke-width="100"/>
</svg>
